<svg width="228" height="44" viewBox="0 0 228 44" fill="none" xmlns="http://www.w3.org/2000/svg">
<path d="M73 36H39V8H73V36ZM39.9489 35.2187H72.0511V8.78127H39.9489V35.2187Z" fill="#FF8C42"/>
<path d="M44 22.2162L49.6815 17.7838L59.1458 23.2831L80.8083 8L86 12.4493L58.7282 32L44 22.2162Z" fill="#FF8C42"/>
<path d="M98.0006 11.85V16.53H92.3606V33H86.4806V16.53H80.9006V11.85H98.0006ZM99.2161 24.57C99.2161 22.83 99.5261 21.31 100.146 20.01C100.786 18.71 101.646 17.71 102.726 17.01C103.826 16.31 105.046 15.96 106.386 15.96C107.546 15.96 108.546 16.19 109.386 16.65C110.226 17.11 110.876 17.73 111.336 18.51V16.17H117.216V33H111.336V30.66C110.876 31.44 110.216 32.06 109.356 32.52C108.516 32.98 107.526 33.21 106.386 33.21C105.046 33.21 103.826 32.86 102.726 32.16C101.646 31.46 100.786 30.46 100.146 29.16C99.5261 27.84 99.2161 26.31 99.2161 24.57ZM111.336 24.57C111.336 23.49 111.036 22.64 110.436 22.02C109.856 21.4 109.136 21.09 108.276 21.09C107.396 21.09 106.666 21.4 106.086 22.02C105.506 22.62 105.216 23.47 105.216 24.57C105.216 25.65 105.506 26.51 106.086 27.15C106.666 27.77 107.396 28.08 108.276 28.08C109.136 28.08 109.856 27.77 110.436 27.15C111.036 26.53 111.336 25.67 111.336 24.57ZM127.737 33.21C126.217 33.21 124.857 32.96 123.657 32.46C122.477 31.94 121.537 31.24 120.837 30.36C120.157 29.46 119.777 28.45 119.697 27.33H125.397C125.477 27.87 125.727 28.29 126.147 28.59C126.567 28.89 127.087 29.04 127.707 29.04C128.187 29.04 128.567 28.94 128.847 28.74C129.127 28.54 129.267 28.28 129.267 27.96C129.267 27.54 129.037 27.23 128.577 27.03C128.117 26.83 127.357 26.61 126.297 26.37C125.097 26.13 124.097 25.86 123.297 25.56C122.497 25.26 121.797 24.77 121.197 24.09C120.617 23.41 120.327 22.49 120.327 21.33C120.327 20.33 120.597 19.43 121.137 18.63C121.677 17.81 122.467 17.16 123.507 16.68C124.567 16.2 125.837 15.96 127.317 15.96C129.517 15.96 131.247 16.5 132.507 17.58C133.767 18.66 134.497 20.08 134.697 21.84H129.387C129.287 21.3 129.047 20.89 128.667 20.61C128.307 20.31 127.817 20.16 127.197 20.16C126.717 20.16 126.347 20.25 126.087 20.43C125.847 20.61 125.727 20.86 125.727 21.18C125.727 21.58 125.957 21.89 126.417 22.11C126.877 22.31 127.617 22.52 128.637 22.74C129.857 23 130.867 23.29 131.667 23.61C132.487 23.93 133.197 24.45 133.797 25.17C134.417 25.87 134.727 26.83 134.727 28.05C134.727 29.03 134.437 29.91 133.857 30.69C133.297 31.47 132.487 32.09 131.427 32.55C130.387 32.99 129.157 33.21 127.737 33.21ZM148.148 33L143.498 26.1V33H137.618V10.8H143.498V22.77L148.148 16.17H155.198L148.568 24.63L155.318 33H148.148ZM181.731 11.85V33H175.851V21.33L171.861 33H166.941L162.921 21.24V33H157.041V11.85H164.151L169.461 25.59L174.651 11.85H181.731ZM201.008 11.85V16.53H195.368V33H189.488V16.53H183.908V11.85H201.008Z" fill="white"/>
</svg>
