<svg width="54" height="54" viewBox="0 0 54 54" fill="none" xmlns="http://www.w3.org/2000/svg">
<g clip-path="url(#clip0_118_2)">
<mask id="mask0_118_2" style="mask-type:luminance" maskUnits="userSpaceOnUse" x="1" y="1" width="52" height="52">
<path d="M24.3571 2.64295L2.64297 24.357C1.1833 25.8167 1.1833 28.1833 2.64297 29.643L24.3571 51.3571C25.8167 52.8167 28.1833 52.8167 29.643 51.357L51.3571 29.643C52.8167 28.1833 52.8167 25.8167 51.3571 24.357L29.643 2.64295C28.1833 1.18328 25.8167 1.18327 24.3571 2.64295Z" fill="white"/>
</mask>
<g mask="url(#mask0_118_2)">
<path d="M24.3571 2.64295L2.64297 24.357C1.1833 25.8167 1.1833 28.1833 2.64297 29.643L24.3571 51.3571C25.8167 52.8167 28.1833 52.8167 29.643 51.357L51.3571 29.643C52.8167 28.1833 52.8167 25.8167 51.3571 24.357L29.643 2.64295C28.1833 1.18328 25.8167 1.18327 24.3571 2.64295Z" fill="#006D77"/>
<path d="M4.42614 24.794V23.2727H11.5938V24.794H8.92188V32H7.09801V24.794H4.42614ZM13.7159 32.1236C13.2983 32.1236 12.9261 32.0511 12.5994 31.9062C12.2727 31.7585 12.0142 31.5412 11.8239 31.2543C11.6364 30.9645 11.5426 30.6037 11.5426 30.1719C11.5426 29.8082 11.6094 29.5028 11.7429 29.2557C11.8764 29.0085 12.0582 28.8097 12.2884 28.6591C12.5185 28.5085 12.7798 28.3949 13.0724 28.3182C13.3679 28.2415 13.6776 28.1875 14.0014 28.1562C14.3821 28.1165 14.6889 28.0795 14.9219 28.0455C15.1548 28.0085 15.3239 27.9545 15.429 27.8835C15.5341 27.8125 15.5866 27.7074 15.5866 27.5682V27.5426C15.5866 27.2727 15.5014 27.0639 15.331 26.9162C15.1634 26.7685 14.9247 26.6946 14.6151 26.6946C14.2884 26.6946 14.0284 26.767 13.8352 26.9119C13.642 27.054 13.5142 27.233 13.4517 27.4489L11.7727 27.3125C11.858 26.9148 12.0256 26.571 12.2756 26.2812C12.5256 25.9886 12.848 25.7642 13.2429 25.608C13.6406 25.4489 14.1009 25.3693 14.6236 25.3693C14.9872 25.3693 15.3352 25.4119 15.6676 25.4972C16.0028 25.5824 16.2997 25.7145 16.5582 25.8935C16.8196 26.0724 17.0256 26.3026 17.1761 26.5838C17.3267 26.8622 17.402 27.196 17.402 27.5852V32H15.6804V31.0923H15.6293C15.5241 31.2969 15.3835 31.4773 15.2074 31.6335C15.0312 31.7869 14.8196 31.9077 14.5724 31.9957C14.3253 32.081 14.0398 32.1236 13.7159 32.1236ZM14.2358 30.8707C14.5028 30.8707 14.7386 30.8182 14.9432 30.7131C15.1477 30.6051 15.3082 30.4602 15.4247 30.2784C15.5412 30.0966 15.5994 29.8906 15.5994 29.6605V28.9659C15.5426 29.0028 15.4645 29.0369 15.3651 29.0682C15.2685 29.0966 15.1591 29.1236 15.0369 29.1491C14.9148 29.1719 14.7926 29.1932 14.6705 29.2131C14.5483 29.2301 14.4375 29.2457 14.3381 29.2599C14.125 29.2912 13.9389 29.3409 13.7798 29.4091C13.6207 29.4773 13.4972 29.5696 13.4091 29.6861C13.321 29.7997 13.277 29.9418 13.277 30.1122C13.277 30.3594 13.3665 30.5483 13.5455 30.679C13.7273 30.8068 13.9574 30.8707 14.2358 30.8707ZM24.2564 27.321L22.5945 27.4233C22.5661 27.2812 22.505 27.1534 22.4112 27.0398C22.3175 26.9233 22.1939 26.831 22.0405 26.7628C21.8899 26.6918 21.7095 26.6562 21.4993 26.6562C21.218 26.6562 20.9808 26.7159 20.7876 26.8352C20.5945 26.9517 20.4979 27.108 20.4979 27.304C20.4979 27.4602 20.5604 27.5923 20.6854 27.7003C20.8104 27.8082 21.0249 27.8949 21.3288 27.9602L22.5135 28.1989C23.1499 28.3295 23.6243 28.5398 23.9368 28.8295C24.2493 29.1193 24.4055 29.5 24.4055 29.9716C24.4055 30.4006 24.2791 30.777 24.0263 31.1009C23.7763 31.4247 23.4325 31.6776 22.995 31.8594C22.5604 32.0384 22.0589 32.1278 21.4908 32.1278C20.6243 32.1278 19.9339 31.9474 19.4197 31.5866C18.9084 31.223 18.6087 30.7287 18.5206 30.1037L20.3061 30.0099C20.3601 30.2741 20.4908 30.4759 20.6982 30.6151C20.9055 30.7514 21.1712 30.8196 21.495 30.8196C21.8132 30.8196 22.0689 30.7585 22.2621 30.6364C22.4581 30.5114 22.5575 30.3509 22.5604 30.1548C22.5575 29.9901 22.4879 29.8551 22.3516 29.75C22.2152 29.642 22.005 29.5597 21.7209 29.5028L20.5874 29.277C19.9482 29.1491 19.4723 28.9276 19.1598 28.6122C18.8501 28.2969 18.6953 27.8949 18.6953 27.4062C18.6953 26.9858 18.8089 26.6236 19.0362 26.3196C19.2663 26.0156 19.5888 25.7812 20.0036 25.6165C20.4212 25.4517 20.9098 25.3693 21.4695 25.3693C22.2962 25.3693 22.9467 25.544 23.4212 25.8935C23.8984 26.2429 24.1768 26.7187 24.2564 27.321ZM27.1935 30.1165L27.1978 27.9389H27.462L29.5586 25.4545H31.6424L28.8256 28.7443H28.3952L27.1935 30.1165ZM25.5487 32V23.2727H27.364V32H25.5487ZM29.6396 32L27.7134 29.1491L28.9237 27.8665L31.766 32H29.6396ZM32.5671 23.2727H34.8427L37.2461 29.1364H37.3484L39.7518 23.2727H42.0273V32H40.2376V26.3196H40.1651L37.9066 31.9574H36.6879L34.4293 26.2983H34.3569V32H32.5671V23.2727ZM43.2152 24.794V23.2727H50.3828V24.794H47.7109V32H45.8871V24.794H43.2152Z" fill="white"/>
<path d="M35 34.5L26.75 42.75L23 39" stroke="#83C5BE" stroke-width="1.5" stroke-linecap="round" stroke-linejoin="round"/>
</g>
</g>
<defs>
<clipPath id="clip0_118_2">
<rect width="54" height="54" fill="white"/>
</clipPath>
</defs>
</svg>
