<svg width="70" height="62" viewBox="0 0 70 62" fill="none" xmlns="http://www.w3.org/2000/svg">
<g clip-path="url(#clip0_118_2)">
<mask id="mask0_118_2" style="mask-type:luminance" maskUnits="userSpaceOnUse" x="2" y="1" width="66" height="60">
<path d="M31.574 3.0345L3.42608 27.9655C1.53391 29.6414 1.53391 32.3586 3.42608 34.0345L31.574 58.9655C33.4661 60.6414 36.5339 60.6414 38.4261 58.9655L66.574 34.0345C68.4662 32.3586 68.4662 29.6414 66.574 27.9655L38.4261 3.0345C36.5339 1.35858 33.4661 1.35857 31.574 3.0345Z" fill="white"/>
</mask>
<g mask="url(#mask0_118_2)">
<path d="M29.9469 0.311638L4.86513 27.519C3.17908 29.3479 3.35438 32.5034 5.25668 34.5669L33.5553 65.2637C35.4576 67.3272 38.3666 67.5174 40.0526 65.6884L65.1344 38.4811C66.8204 36.6522 66.6451 33.4967 64.7428 31.4332L36.4442 0.736371C34.5419 -1.32715 31.633 -1.51731 29.9469 0.311638Z" fill="#092C5A"/>
<path d="M11.7965 27.4979V25.9766H18.9641V27.4979H16.2922V34.7039H14.4684V27.4979H11.7965ZM21.0863 34.8274C20.6687 34.8274 20.2965 34.755 19.9698 34.6101C19.6431 34.4624 19.3846 34.2451 19.1942 33.9581C19.0067 33.6683 18.913 33.3076 18.913 32.8757C18.913 32.5121 18.9797 32.2067 19.1133 31.9595C19.2468 31.7124 19.4286 31.5135 19.6587 31.3629C19.8888 31.2124 20.1502 31.0987 20.4428 31.022C20.7383 30.9453 21.0479 30.8914 21.3718 30.8601C21.7525 30.8203 22.0593 30.7834 22.2922 30.7493C22.5252 30.7124 22.6942 30.6584 22.7993 30.5874C22.9045 30.5164 22.957 30.4112 22.957 30.272V30.2465C22.957 29.9766 22.8718 29.7678 22.7013 29.6201C22.5337 29.4723 22.2951 29.3985 21.9854 29.3985C21.6587 29.3985 21.3988 29.4709 21.2056 29.6158C21.0124 29.7578 20.8846 29.9368 20.8221 30.1527L19.1431 30.0164C19.2283 29.6186 19.3959 29.2749 19.6459 28.9851C19.8959 28.6925 20.2184 28.4681 20.6133 28.3118C21.011 28.1527 21.4712 28.0732 21.9939 28.0732C22.3576 28.0732 22.7056 28.1158 23.038 28.201C23.3732 28.2862 23.6701 28.4183 23.9286 28.5973C24.19 28.7763 24.3959 29.0064 24.5465 29.2877C24.6971 29.5661 24.7723 29.8999 24.7723 30.2891V34.7039H23.0508V33.7962H22.9996C22.8945 34.0007 22.7539 34.1811 22.5777 34.3374C22.4016 34.4908 22.19 34.6115 21.9428 34.6996C21.6956 34.7848 21.4101 34.8274 21.0863 34.8274ZM21.6062 33.5746C21.8732 33.5746 22.109 33.522 22.3135 33.4169C22.5181 33.309 22.6786 33.1641 22.7951 32.9823C22.9116 32.8004 22.9698 32.5945 22.9698 32.3644V31.6698C22.913 31.7067 22.8349 31.7408 22.7354 31.772C22.6388 31.8004 22.5295 31.8274 22.4073 31.853C22.2851 31.8757 22.163 31.897 22.0408 31.9169C21.9187 31.934 21.8079 31.9496 21.7084 31.9638C21.4954 31.9951 21.3093 32.0448 21.1502 32.1129C20.9911 32.1811 20.8675 32.2735 20.7795 32.3899C20.6914 32.5036 20.6474 32.6456 20.6474 32.8161C20.6474 33.0632 20.7368 33.2522 20.9158 33.3828C21.0976 33.5107 21.3277 33.5746 21.6062 33.5746ZM31.6268 30.0249L29.9648 30.1272C29.9364 29.9851 29.8753 29.8573 29.7816 29.7436C29.6878 29.6272 29.5643 29.5348 29.4108 29.4666C29.2603 29.3956 29.0799 29.3601 28.8697 29.3601C28.5884 29.3601 28.3512 29.4198 28.158 29.5391C27.9648 29.6556 27.8682 29.8118 27.8682 30.0078C27.8682 30.1641 27.9307 30.2962 28.0557 30.4041C28.1807 30.5121 28.3952 30.5987 28.6992 30.6641L29.8839 30.9027C30.5202 31.0334 30.9947 31.2436 31.3072 31.5334C31.6197 31.8232 31.7759 32.2039 31.7759 32.6754C31.7759 33.1044 31.6495 33.4808 31.3966 33.8047C31.1466 34.1286 30.8029 34.3814 30.3654 34.5632C29.9307 34.7422 29.4293 34.8317 28.8611 34.8317C27.9947 34.8317 27.3043 34.6513 26.7901 34.2905C26.2787 33.9269 25.979 33.4326 25.891 32.8076L27.6765 32.7138C27.7304 32.978 27.8611 33.1797 28.0685 33.3189C28.2759 33.4553 28.5415 33.5235 28.8654 33.5235C29.1836 33.5235 29.4393 33.4624 29.6324 33.3402C29.8285 33.2152 29.9279 33.0547 29.9307 32.8587C29.9279 32.6939 29.8583 32.559 29.7219 32.4539C29.5856 32.3459 29.3753 32.2635 29.0912 32.2067L27.9577 31.9808C27.3185 31.853 26.8427 31.6314 26.5302 31.3161C26.2205 31.0007 26.0657 30.5987 26.0657 30.1101C26.0657 29.6897 26.1793 29.3274 26.4066 29.0235C26.6367 28.7195 26.9591 28.4851 27.3739 28.3203C27.7915 28.1556 28.2802 28.0732 28.8398 28.0732C29.6665 28.0732 30.3171 28.2479 30.7915 28.5973C31.2688 28.9468 31.5472 29.4226 31.6268 30.0249ZM34.5639 32.8203L34.5682 30.6428H34.8324L36.929 28.1584H39.0128L36.196 31.4482H35.7656L34.5639 32.8203ZM32.919 34.7039V25.9766H34.7344V34.7039H32.919ZM37.0099 34.7039L35.0838 31.853L36.294 30.5703L39.1363 34.7039H37.0099ZM39.9375 25.9766H42.213L44.6165 31.8402H44.7187L47.1221 25.9766H49.3977V34.7039H47.6079V29.0235H47.5355L45.277 34.6612H44.0582L41.7997 29.0022H41.7273V34.7039H39.9375V25.9766ZM50.5856 27.4979V25.9766H57.7532V27.4979H55.0813V34.7039H53.2574V27.4979H50.5856Z" fill="white"/>
<path d="M43.1111 40L34.0972 49.7778L30 45.3333" stroke="#6AAEDF" stroke-width="1.5" stroke-linecap="round" stroke-linejoin="round"/>
</g>
</g>
<defs>
<clipPath id="clip0_118_2">
<rect width="70" height="62" fill="white"/>
</clipPath>
</defs>
</svg>
