<svg width="463" height="463" viewBox="0 0 463 463" fill="none" xmlns="http://www.w3.org/2000/svg">
<path d="M32.7249 392.531V415.774H38.0865C37.8053 413.328 37.8053 410.858 38.0865 408.412C38.5958 405.681 44.4203 398.625 44.2444 392.569L32.7249 392.531Z" fill="#EBEBEB"/>
<path d="M75.6172 392.531V415.774H80.9788C80.6976 413.328 80.6976 410.858 80.9788 408.412C81.4881 405.681 87.3126 398.625 87.1367 392.569L75.6172 392.531Z" fill="#E0E0E0"/>
<path d="M117.602 392.531V415.774H112.231C112.507 413.328 112.507 410.859 112.231 408.412C111.713 405.681 105.897 398.625 106.064 392.569L117.602 392.531Z" fill="#EBEBEB"/>
<path d="M154.716 392.531V415.774H149.355C149.631 413.328 149.631 410.859 149.355 408.412C148.845 405.681 143.021 398.625 143.197 392.569L154.716 392.531Z" fill="#E0E0E0"/>
<path d="M157.531 277.92H29.0764V393.272H157.531V277.92Z" fill="#F5F5F5"/>
<path d="M122.927 277.92L123.88 393.272H157.531V277.92H122.927Z" fill="#E0E0E0"/>
<path d="M117.324 286.412H34.8545V315.766H117.324V286.412Z" fill="#EBEBEB"/>
<path d="M117.324 321.609H34.8545V350.963H117.324V321.609Z" fill="#EBEBEB"/>
<path d="M117.324 356.816H34.8545V386.17H117.324V356.816Z" fill="#EBEBEB"/>
<path d="M66.4683 244.779L62.9124 277.791H108.49L112.268 244.779H66.4683Z" fill="#E0E0E0"/>
<path d="M68.348 247.149L64.8848 276.031H106.018L109.342 247.149H68.348Z" fill="white"/>
<path d="M75.2653 252.011L73.1355 271.179H99.0912L100.425 252.011H75.2653Z" fill="#EBEBEB"/>
<path d="M110.638 258.993L120.056 277.92L108.49 277.791L110.638 258.993Z" fill="#EBEBEB"/>
<path d="M79.1081 302.617C79.1099 303.214 78.9344 303.799 78.6038 304.297C78.2732 304.794 77.8024 305.183 77.251 305.412C76.6995 305.642 76.0923 305.703 75.5061 305.588C74.9199 305.473 74.3811 305.186 73.958 304.764C73.5349 304.342 73.2465 303.804 73.1292 303.218C73.012 302.633 73.0712 302.025 73.2995 301.473C73.5277 300.921 73.9146 300.449 74.4112 300.117C74.9078 299.785 75.4918 299.607 76.0893 299.607C76.8883 299.607 77.6548 299.924 78.2206 300.488C78.7865 301.052 79.1056 301.818 79.1081 302.617Z" fill="#E0E0E0"/>
<path d="M79.1083 338.175C79.1083 338.772 78.9312 339.356 78.5995 339.852C78.2678 340.349 77.7963 340.736 77.2447 340.964C76.6931 341.193 76.0862 341.253 75.5006 341.136C74.915 341.02 74.3771 340.732 73.9549 340.31C73.5327 339.888 73.2452 339.35 73.1288 338.764C73.0123 338.179 73.0721 337.572 73.3005 337.02C73.529 336.468 73.9159 335.997 74.4124 335.665C74.9088 335.334 75.4925 335.157 76.0895 335.157C76.4863 335.155 76.8794 335.233 77.2462 335.384C77.613 335.535 77.9463 335.757 78.2268 336.038C78.5074 336.319 78.7297 336.652 78.881 337.019C79.0322 337.385 79.1095 337.779 79.1083 338.175Z" fill="#E0E0E0"/>
<path d="M79.1083 373.724C79.1083 374.321 78.9312 374.905 78.5995 375.402C78.2678 375.898 77.7963 376.285 77.2447 376.513C76.6931 376.742 76.0862 376.802 75.5006 376.685C74.915 376.569 74.3771 376.281 73.9549 375.859C73.5327 375.437 73.2452 374.899 73.1288 374.313C73.0123 373.728 73.0721 373.121 73.3005 372.569C73.529 372.018 73.9159 371.546 74.4124 371.214C74.9088 370.883 75.4925 370.706 76.0895 370.706C76.8901 370.706 77.658 371.024 78.2241 371.59C78.7902 372.156 79.1083 372.924 79.1083 373.724Z" fill="#E0E0E0"/>
<path d="M117.195 90.4054L44.3647 89.7017L46.3926 184.617L119.222 184.885L117.195 90.4054Z" fill="#E0E0E0"/>
<path d="M112.5 94.6373L48.7446 92.989L50.5874 179.07L114.324 179.857L112.5 94.6373Z" fill="#FAFAFA"/>
<path d="M101.619 107.499L59.3103 106.796L60.6067 166.967L102.869 166.06L101.619 107.499Z" fill="#EBEBEB"/>
<path d="M60.6067 166.967L102.212 135.15L59.3103 106.796L60.6067 166.967Z" fill="#F5F5F5"/>
<path d="M430.599 40.9293L366.696 40.3088L368.483 123.584L432.368 123.816L430.599 40.9293Z" fill="#E0E0E0"/>
<path d="M426.469 44.6518L370.539 43.198L372.159 118.713L428.071 119.399L426.469 44.6518Z" fill="#FAFAFA"/>
<path d="M416.922 55.9305L379.817 55.3101L380.947 108.092L418.024 107.305L416.922 55.9305Z" fill="#EBEBEB"/>
<path d="M380.947 108.092L417.45 80.1824L379.817 55.3101L380.947 108.092Z" fill="#F5F5F5"/>
<path d="M359.019 354.01C358.751 354.825 368.279 391.05 368.279 391.05L374.817 389.689L365.826 354.01H359.019Z" fill="#EBEBEB"/>
<path d="M409.681 348.833L396.606 391.05H404.236L416.765 351.834L409.681 348.833Z" fill="#F5F5F5"/>
<path d="M421.663 342.296L406.681 391.05H414.311L428.747 345.296L421.663 342.296Z" fill="#EBEBEB"/>
<path d="M363.649 388.059L371.28 414.478H409.681L416.765 388.059H363.649Z" fill="#E0E0E0"/>
<path d="M383.457 388.059C383.423 387.968 383.395 387.875 383.373 387.781L383.17 386.975C382.994 386.235 382.753 385.188 382.438 383.855L379.799 372.317L371.178 333.842L371.409 334.036H364.687L364.918 333.74C368.335 348.88 371.4 362.446 373.595 372.243C374.669 377.123 375.539 381.058 376.15 383.818C376.428 385.16 376.66 386.207 376.817 386.957C376.882 387.3 376.938 387.568 376.975 387.772C376.99 387.867 376.99 387.964 376.975 388.059C376.941 387.968 376.913 387.875 376.891 387.781C376.836 387.577 376.771 387.309 376.688 386.975C376.502 386.235 376.252 385.188 375.928 383.855C375.289 381.077 374.373 377.178 373.234 372.317C370.983 362.52 367.881 348.972 364.418 333.842L364.344 333.555H371.567L371.613 333.74C374.937 348.88 377.928 362.446 380.086 372.243C381.132 377.123 381.984 381.058 382.577 383.818C382.855 385.16 383.068 386.207 383.225 386.957L383.382 387.772C383.422 387.863 383.447 387.96 383.457 388.059Z" fill="#E0E0E0"/>
<path d="M420.987 415.58C420.987 415.709 333.073 415.82 224.675 415.82C116.278 415.82 28.3633 415.709 28.3633 415.58C28.3633 415.45 116.259 415.339 224.722 415.339C333.184 415.339 420.987 415.45 420.987 415.58Z" fill="#263238"/>
<path d="M395.708 162.837C395.496 162.748 395.275 162.679 395.05 162.633C394.389 162.484 393.702 162.484 393.041 162.633C391.969 162.909 390.972 163.422 390.124 164.133C388.971 165.132 387.972 166.296 387.161 167.587C385.262 170.495 383.771 174.514 382.031 179.2C380.016 184.55 378.273 189.999 376.808 195.525C376.535 196.035 376.171 196.49 375.734 196.868C375.508 197.073 375.241 197.228 374.95 197.32C374.659 197.413 374.351 197.442 374.048 197.405C373.454 197.253 372.916 196.931 372.502 196.479C372.067 196.08 371.659 195.655 371.252 195.219C370.448 194.335 369.591 193.5 368.687 192.719C367.813 191.878 366.65 191.404 365.437 191.395C364.83 191.498 364.252 191.728 363.74 192.07C363.228 192.411 362.793 192.856 362.464 193.377C361.807 194.501 361.453 195.778 361.436 197.081C361.279 199.729 362.047 202.405 362.51 205.174C362.973 207.943 363.557 210.785 364.094 213.684C364.372 215.138 364.64 216.601 364.918 218.082L365.335 220.323C365.462 220.715 365.504 221.129 365.458 221.538C365.411 221.946 365.278 222.341 365.066 222.694C364.927 222.88 364.735 223.019 364.515 223.093C364.295 223.168 364.058 223.174 363.835 223.11C363.435 222.994 363.061 222.802 362.733 222.546L360.881 221.138C359.62 220.186 358.31 219.302 356.954 218.49C355.598 217.645 354.117 217.02 352.565 216.638C351.798 216.457 350.999 216.457 350.232 216.638C349.467 216.831 348.794 217.282 348.324 217.916C347.433 219.29 346.996 220.909 347.074 222.546C347.077 224.23 347.241 225.911 347.565 227.564C348.233 230.963 349.177 234.302 350.389 237.547C350.742 238.376 351.012 239.239 351.195 240.121C351.239 240.371 351.232 240.627 351.173 240.874C351.114 241.121 351.005 241.353 350.852 241.556C350.77 241.653 350.68 241.742 350.584 241.825C350.479 241.919 350.356 241.992 350.222 242.038C349.94 242.08 349.652 242.014 349.417 241.853C348.648 241.359 347.931 240.788 347.278 240.149L345.296 238.297C343.998 237.04 342.588 235.906 341.083 234.908C340.333 234.415 339.511 234.04 338.647 233.796C338.237 233.669 337.805 233.631 337.378 233.683C336.952 233.736 336.542 233.879 336.175 234.102C335.46 234.621 334.962 235.386 334.777 236.25C334.554 237.134 334.442 238.043 334.443 238.954C334.452 240.827 334.685 242.693 335.138 244.51C336.053 248.204 337.405 251.776 339.166 255.15C340.919 258.609 342.921 261.936 345.157 265.105C346.276 266.712 347.482 268.258 348.769 269.735C350.009 271.272 351.269 272.8 352.528 274.365V274.42L352.306 274.327L358.195 273.476C360.147 273.243 362.085 272.909 364.001 272.475C367.78 271.626 371.493 270.508 375.113 269.133C378.685 267.812 382.088 266.074 385.253 263.956C386.807 262.928 388.228 261.712 389.485 260.336C390.105 259.661 390.637 258.912 391.068 258.104C391.51 257.34 391.655 256.44 391.476 255.576C391.357 255.162 391.15 254.779 390.871 254.452C390.591 254.124 390.245 253.86 389.855 253.678C389.05 253.284 388.193 253.01 387.309 252.863C385.523 252.593 383.716 252.484 381.91 252.539H379.206C378.277 252.575 377.346 252.516 376.428 252.363C376.144 252.326 375.884 252.18 375.706 251.955C375.638 251.829 375.597 251.691 375.586 251.548C375.572 251.422 375.572 251.294 375.586 251.168C375.614 250.917 375.691 250.674 375.814 250.454C375.936 250.233 376.101 250.038 376.299 249.881C377.028 249.353 377.806 248.898 378.623 248.52C381.705 246.935 384.65 245.099 387.429 243.029C388.774 242.026 390.015 240.89 391.133 239.64C392.289 238.483 393.054 236.993 393.318 235.38C393.396 234.594 393.2 233.806 392.763 233.148C392.32 232.496 391.73 231.956 391.041 231.574C389.644 230.806 388.134 230.265 386.568 229.972C385.02 229.66 383.456 229.434 381.882 229.296L379.549 229.074C379.132 229.05 378.726 228.94 378.354 228.75C378.147 228.643 377.978 228.476 377.867 228.271C377.756 228.067 377.71 227.833 377.734 227.602C377.819 227.2 377.987 226.822 378.228 226.49C378.469 226.158 378.777 225.881 379.132 225.675L380.984 224.305L384.549 221.592L391.439 216.36C393.652 214.628 396.013 213.165 397.68 211.091C398.533 210.121 399.12 208.947 399.384 207.683C399.491 207.076 399.47 206.452 399.32 205.854C399.17 205.256 398.895 204.696 398.513 204.211C398.109 203.764 397.585 203.443 397.004 203.285C396.423 203.112 395.823 203.013 395.217 202.988C394.024 202.957 392.83 203 391.642 203.118C391.05 203.118 390.457 203.201 389.874 203.211C389.266 203.256 388.658 203.124 388.124 202.831C387.868 202.658 387.653 202.432 387.493 202.168C387.334 201.905 387.233 201.61 387.198 201.303C387.129 200.728 387.164 200.144 387.299 199.581C389.95 194.559 392.345 189.407 394.476 184.144C396.328 179.514 397.93 175.533 398.504 172.106C398.785 170.611 398.847 169.082 398.689 167.569C398.569 166.469 398.199 165.411 397.606 164.476C397.247 163.904 396.759 163.425 396.18 163.078C395.983 162.957 395.775 162.855 395.559 162.772C395.784 162.833 395.998 162.923 396.198 163.041C396.794 163.381 397.302 163.857 397.68 164.43C398.284 165.372 398.668 166.439 398.8 167.55C398.981 169.077 398.934 170.621 398.661 172.134C398.106 175.57 396.532 179.542 394.689 184.172C392.603 189.495 390.248 194.709 387.633 199.794C387.505 200.315 387.473 200.854 387.54 201.386C387.565 201.648 387.646 201.902 387.777 202.13C387.908 202.359 388.086 202.557 388.3 202.711C388.783 202.966 389.329 203.079 389.874 203.035C390.448 203.035 391.031 202.979 391.624 202.933C392.827 202.812 394.036 202.765 395.245 202.794C395.872 202.819 396.494 202.922 397.097 203.1C397.733 203.269 398.31 203.612 398.763 204.09C399.167 204.609 399.458 205.207 399.617 205.845C399.777 206.482 399.801 207.147 399.689 207.794C399.42 209.121 398.807 210.354 397.911 211.369C396.198 213.499 393.819 214.98 391.624 216.721L384.744 221.962L381.188 224.666L379.382 226.046C379.077 226.25 378.8 226.493 378.558 226.768C378.335 227.033 378.188 227.353 378.132 227.694C378.116 227.848 378.147 228.003 378.222 228.139C378.296 228.275 378.41 228.384 378.549 228.453C378.876 228.612 379.232 228.703 379.595 228.722L381.929 228.944C383.515 229.079 385.091 229.305 386.651 229.62C388.271 229.919 389.834 230.472 391.281 231.259C392.019 231.684 392.652 232.269 393.133 232.972C393.616 233.709 393.838 234.586 393.763 235.463C393.488 237.17 392.688 238.75 391.476 239.982C390.326 241.254 389.054 242.411 387.679 243.436C384.882 245.527 381.918 247.385 378.817 248.992C378.029 249.349 377.279 249.784 376.576 250.289C376.423 250.407 376.294 250.554 376.199 250.723C376.103 250.891 376.043 251.078 376.021 251.27C376.012 251.362 376.012 251.456 376.021 251.548C376.021 251.622 376.021 251.798 376.086 251.789C376.205 251.895 376.353 251.963 376.512 251.983C377.381 252.124 378.261 252.179 379.141 252.15H381.845C383.679 252.083 385.514 252.192 387.327 252.474C388.262 252.62 389.168 252.91 390.013 253.335C390.459 253.549 390.855 253.855 391.175 254.233C391.494 254.612 391.729 255.053 391.865 255.53C392.075 256.503 391.916 257.519 391.42 258.382C390.973 259.224 390.419 260.005 389.772 260.706C388.491 262.113 387.042 263.357 385.457 264.41C382.264 266.557 378.826 268.314 375.215 269.642C371.566 271.034 367.822 272.16 364.011 273.013C362.088 273.448 360.144 273.782 358.186 274.013L352.287 274.874H352.149L352.065 274.763H352.019L348.259 270.133C346.973 268.653 345.765 267.108 344.639 265.503C342.385 262.311 340.367 258.959 338.601 255.474C336.832 252.063 335.473 248.454 334.555 244.723C334.086 242.88 333.847 240.986 333.841 239.084C333.843 238.129 333.961 237.177 334.193 236.25C334.412 235.28 334.979 234.423 335.786 233.843C336.208 233.582 336.68 233.414 337.172 233.35C337.664 233.286 338.164 233.328 338.638 233.472C339.544 233.729 340.406 234.122 341.194 234.639C342.724 235.651 344.157 236.805 345.472 238.084L347.454 239.936C348.084 240.548 348.773 241.097 349.509 241.575C349.642 241.67 349.8 241.722 349.963 241.723C349.963 241.723 350.102 241.64 350.167 241.593L350.371 241.39C350.483 241.233 350.562 241.056 350.603 240.868C350.645 240.68 350.648 240.486 350.611 240.297C350.436 239.449 350.175 238.621 349.834 237.825C348.616 234.555 347.668 231.192 347 227.768C346.671 226.087 346.507 224.379 346.509 222.666C346.436 220.935 346.909 219.224 347.861 217.777C348.389 217.074 349.14 216.571 349.991 216.351C350.822 216.156 351.687 216.156 352.519 216.351C354.11 216.727 355.632 217.352 357.029 218.203C358.4 219.017 359.724 219.911 360.992 220.879L362.844 222.286C363.12 222.51 363.433 222.682 363.77 222.796C363.919 222.839 364.078 222.836 364.226 222.786C364.373 222.737 364.502 222.643 364.594 222.518C364.777 222.242 364.882 221.922 364.9 221.592C364.909 221.224 364.868 220.856 364.779 220.499C364.64 219.749 364.511 219.008 364.372 218.267C364.094 216.786 363.825 215.314 363.557 213.869C363.029 210.961 362.501 208.128 361.992 205.359C361.483 202.59 360.77 199.905 360.927 197.173C360.954 195.819 361.331 194.496 362.02 193.33C362.376 192.766 362.849 192.285 363.406 191.918C363.964 191.55 364.593 191.306 365.251 191.2C365.907 191.147 366.565 191.278 367.15 191.58C367.718 191.856 368.25 192.201 368.733 192.608C369.649 193.399 370.515 194.247 371.326 195.145C371.721 195.577 372.129 195.994 372.548 196.395C372.925 196.795 373.406 197.08 373.937 197.219C374.199 197.249 374.464 197.222 374.715 197.14C374.966 197.059 375.196 196.925 375.391 196.747C375.797 196.397 376.135 195.977 376.391 195.506C377.875 189.971 379.643 184.516 381.688 179.162C383.447 174.486 384.966 170.458 386.901 167.55C387.729 166.252 388.746 165.084 389.92 164.087C390.784 163.371 391.801 162.864 392.893 162.606C393.562 162.448 394.26 162.448 394.93 162.606C395.2 162.638 395.463 162.716 395.708 162.837Z" fill="#263238"/>
<path d="M390.846 175.431C390.83 175.536 390.799 175.639 390.753 175.736L390.439 176.607C390.133 177.394 389.707 178.514 389.17 179.931C388.04 182.848 386.438 187.024 384.457 192.163L369.076 232.574C363.094 248.316 357.612 262.641 353.556 272.938C351.537 278.087 349.852 282.245 348.704 285.115C348.13 286.523 347.676 287.625 347.352 288.403C347.194 288.764 347.083 289.042 346.991 289.264L346.852 289.542C346.869 289.439 346.9 289.339 346.944 289.245C347.018 289.023 347.13 288.736 347.259 288.375C347.565 287.579 347.991 286.467 348.528 285.041C349.658 282.124 351.26 277.957 353.241 272.818L368.622 232.426C374.604 216.638 380.077 202.368 384.142 192.071C386.16 186.922 387.846 182.755 388.994 179.894C389.568 178.486 390.022 177.375 390.346 176.597C390.503 176.246 390.615 175.958 390.707 175.746L390.846 175.431Z" fill="#263238"/>
<path d="M391.346 207.424C390.615 207.948 389.84 208.41 389.031 208.804L383.364 211.952C381.142 213.184 379.123 214.286 377.632 215.036C376.848 215.481 376.02 215.841 375.16 216.11C375.897 215.595 376.671 215.134 377.475 214.73L383.123 211.535C385.346 210.304 387.374 209.23 388.874 208.498C389.662 208.062 390.49 207.702 391.346 207.424Z" fill="#263238"/>
<path d="M374.41 215.517C374.289 215.573 372.085 211.369 369.493 206.128C366.9 200.886 364.863 196.59 365.001 196.525C365.14 196.46 367.326 200.673 369.928 205.915C372.53 211.156 374.53 215.452 374.41 215.517Z" fill="#263238"/>
<path d="M366.316 240.177C365.576 239.63 364.894 239.009 364.279 238.325C363.075 237.121 361.501 235.408 359.788 233.426C358.075 231.444 356.686 229.574 355.704 228.185C355.127 227.468 354.628 226.692 354.214 225.87C354.849 226.531 355.437 227.236 355.973 227.981C357.029 229.315 358.482 231.139 360.158 233.111C361.834 235.084 363.39 236.815 364.52 238.084C365.17 238.735 365.771 239.435 366.316 240.177Z" fill="#263238"/>
<path d="M383.253 236.195C382.462 236.511 381.644 236.753 380.808 236.917C379.29 237.297 377.178 237.788 374.845 238.306C372.511 238.825 370.382 239.232 368.844 239.565C368.019 239.773 367.176 239.901 366.326 239.945C367.116 239.632 367.935 239.393 368.77 239.232C370.289 238.852 372.4 238.306 374.743 237.834C377.086 237.362 379.197 236.908 380.734 236.584C381.56 236.377 382.403 236.247 383.253 236.195Z" fill="#263238"/>
<path d="M378.873 258.882C377.845 259.238 376.793 259.519 375.724 259.724C373.761 260.178 371.094 260.78 368.057 261.41C365.02 262.039 362.325 262.595 360.353 262.965C359.297 263.218 358.222 263.388 357.14 263.475C358.167 263.116 359.219 262.834 360.288 262.632C362.242 262.178 364.918 261.576 367.955 260.947C370.993 260.317 373.678 259.762 375.65 259.391C376.71 259.138 377.787 258.968 378.873 258.882Z" fill="#263238"/>
<path d="M357.621 263.216C357.363 263.037 357.13 262.825 356.927 262.586C356.501 262.16 355.908 261.53 355.177 260.734C353.723 259.141 351.769 256.891 349.713 254.326C347.657 251.761 345.889 249.353 344.657 247.585C344.037 246.705 343.555 245.983 343.231 245.473C343.038 245.222 342.882 244.945 342.768 244.649C343 244.861 343.205 245.101 343.379 245.362L344.935 247.39C346.231 249.103 348.037 251.465 350.093 254.02C352.149 256.576 354.047 258.863 355.436 260.502C356.223 261.358 356.953 262.264 357.621 263.216Z" fill="#263238"/>
<path d="M348.361 325.248C332.286 312.284 329.952 290.125 331.971 270.485C332.314 267.207 332.184 263.716 333.943 260.938C335.703 258.16 339.499 256.446 342.342 258.03C344.704 259.345 345.565 262.262 346.768 264.697C348.38 267.953 350.877 270.687 353.973 272.587C355.991 273.818 358.538 274.661 360.677 273.661C363.622 272.29 364.224 268.401 364.427 265.132L365.566 246.853C365.77 243.575 365.992 240.241 367.224 237.213C368.455 234.185 370.928 231.454 374.067 230.787C377.206 230.12 380.956 232.194 381.392 235.417C381.422 236.778 381.36 238.139 381.206 239.491C381.206 240.853 381.734 242.399 382.994 242.862C384.253 243.325 385.642 242.501 386.698 241.612C390.3 238.547 392.874 234.454 395.309 230.37C397.745 226.287 400.106 222.101 403.421 218.712C406.736 215.323 411.153 212.758 415.857 212.813C420.561 212.869 425.34 216.101 426.21 220.777C427.08 225.453 424.071 229.963 420.886 233.491C416.156 238.736 410.691 243.268 404.662 246.946C403.485 247.477 402.511 248.373 401.884 249.501C401.023 251.631 402.94 253.937 405.042 254.807C407.421 255.78 410.088 255.733 412.616 256.187C415.144 256.641 417.83 257.974 418.626 260.447C419.737 263.882 416.7 267.188 413.792 269.299C407.997 273.511 401.524 276.7 394.652 278.726C392.18 279.439 389.596 280.032 387.54 281.587C385.485 283.143 384.114 286.004 385.133 288.384C386.151 290.764 389.105 291.718 391.615 291.421C394.124 291.125 396.513 289.912 398.976 289.171C403.606 287.782 409.366 288.495 411.94 292.57C413.653 295.255 413.579 298.82 412.413 301.83C411.111 304.752 409.238 307.384 406.903 309.571C399.198 317.636 389.49 323.509 378.771 326.591C368.104 329.489 358.399 329.804 348.287 325.304" fill="#6AAEDF"/>
<g opacity="0.1">
<path d="M348.005 325.436C331.93 312.472 329.596 290.313 331.615 270.673C331.958 267.395 331.828 263.904 333.587 261.126C335.347 258.348 339.143 256.634 341.986 258.218C344.348 259.533 345.209 262.45 346.412 264.885C348.024 268.141 350.521 270.875 353.617 272.775C355.635 274.006 358.182 274.849 360.321 273.849C363.266 272.478 363.868 268.589 364.071 265.32L365.21 247.041C365.414 243.763 365.636 240.429 366.868 237.401C368.099 234.373 370.572 231.642 373.711 230.975C376.85 230.308 380.6 232.382 381.036 235.605C381.066 236.966 381.004 238.327 380.85 239.679C380.85 241.041 381.378 242.587 382.638 243.05C383.897 243.513 385.286 242.689 386.342 241.8C389.944 238.735 392.518 234.642 394.953 230.558C397.389 226.475 399.75 222.289 403.065 218.9C406.38 215.511 410.797 212.946 415.501 213.001C420.205 213.057 424.984 216.289 425.854 220.965C426.724 225.641 423.715 230.151 420.53 233.679C415.8 238.924 410.335 243.456 404.306 247.134C403.129 247.665 402.155 248.561 401.528 249.689C400.667 251.819 402.584 254.125 404.686 254.995C407.065 255.968 409.732 255.921 412.26 256.375C414.788 256.829 417.474 258.162 418.27 260.635C419.381 264.07 416.344 267.376 413.436 269.487C407.641 273.699 401.168 276.888 394.296 278.914C391.824 279.627 389.24 280.22 387.184 281.775C385.129 283.331 383.758 286.192 384.777 288.572C385.795 290.952 388.749 291.906 391.259 291.609C393.768 291.313 396.157 290.1 398.62 289.359C403.25 287.97 409.01 288.683 411.584 292.758C413.297 295.443 413.223 299.008 412.057 302.018C410.755 304.94 408.882 307.572 406.547 309.759C398.842 317.824 389.134 323.697 378.415 326.779C367.748 329.677 358.043 329.992 347.931 325.492" fill="black"/>
</g>
<path d="M347.102 339.842C348.645 330.777 351.051 321.881 354.288 313.275C358.293 302.776 362.897 292.514 368.076 282.541L372.104 274.67C373.437 272.087 374.752 269.531 376.197 267.105C378.978 262.461 382.01 257.972 385.281 253.659C388.383 249.52 391.466 245.705 394.383 242.158C397.3 238.612 400.097 235.371 402.764 232.519C406.952 227.997 411.491 223.814 416.339 220.008C418.052 218.666 419.413 217.666 420.348 216.999L421.413 216.249C421.531 216.159 421.654 216.079 421.784 216.008C421.686 216.119 421.574 216.215 421.45 216.295L420.422 217.101C419.496 217.795 418.172 218.823 416.487 220.203C411.708 224.065 407.226 228.281 403.079 232.815C400.439 235.676 397.671 238.936 394.745 242.482C391.818 246.029 388.772 249.89 385.697 254.002C382.444 258.3 379.433 262.777 376.678 267.41C375.243 269.827 373.9 272.364 372.613 274.948L368.585 282.819C363.42 292.773 358.81 303.005 354.778 313.469C351.531 322.039 349.092 330.893 347.491 339.916" fill="#263238"/>
<path d="M376.373 267.077C376.242 266.615 376.165 266.14 376.141 265.66C376.039 264.734 375.919 263.419 375.799 261.771C375.567 258.493 375.391 253.937 375.215 248.927C375.039 243.918 374.799 239.371 374.511 236.093C374.373 234.463 374.252 233.139 374.15 232.222C374.067 231.749 374.039 231.267 374.067 230.787C374.218 231.242 374.323 231.71 374.382 232.185C374.548 233.111 374.743 234.417 374.937 236.056C375.336 239.325 375.641 243.871 375.863 248.9C376.086 253.928 376.169 258.326 376.271 261.752C376.336 263.299 376.382 264.595 376.428 265.642C376.456 266.121 376.437 266.601 376.373 267.077Z" fill="#263238"/>
<path d="M418.932 262.104C418.371 262.192 417.804 262.223 417.237 262.197C416.154 262.197 414.589 262.197 412.607 262.327C408.736 262.484 403.347 262.873 397.504 263.577C391.661 264.28 386.327 265.142 382.512 265.882C380.605 266.234 379.067 266.568 378.002 266.808C377.456 266.953 376.899 267.049 376.336 267.095C376.856 266.876 377.396 266.702 377.947 266.577C378.993 266.281 380.521 265.892 382.429 265.475C386.225 264.632 391.531 263.697 397.43 262.984C402.464 262.37 407.527 262.014 412.598 261.919C414.542 261.919 416.117 261.919 417.228 261.975C417.799 261.967 418.369 262.011 418.932 262.104Z" fill="#263238"/>
<path d="M354.862 312.516C354.752 312.354 354.667 312.176 354.612 311.988L353.991 310.414C353.463 309.052 352.75 307.052 351.908 304.58C350.213 299.626 348.083 292.709 345.833 285.051C343.583 277.393 341.527 270.457 339.935 265.475C339.157 263.049 338.509 261.058 338.036 259.576L337.527 257.974C337.455 257.79 337.408 257.597 337.388 257.4C337.493 257.565 337.577 257.742 337.638 257.928C337.805 258.354 338.009 258.854 338.249 259.502C338.777 260.863 339.49 262.864 340.342 265.336C342.037 270.29 344.166 277.207 346.407 284.875C348.648 292.542 350.723 299.459 352.315 304.441C353.093 306.867 353.732 308.858 354.167 310.34L354.677 311.942C354.765 312.123 354.827 312.317 354.862 312.516Z" fill="#263238"/>
<path d="M411.94 298.348C411.761 298.444 411.567 298.51 411.366 298.542L409.709 298.978L403.597 300.506C398.43 301.793 391.328 303.654 383.475 305.728C375.623 307.802 368.492 309.599 363.298 310.784C360.705 311.377 358.603 311.84 357.14 312.127L355.454 312.451C355.261 312.5 355.061 312.521 354.862 312.516C355.041 312.43 355.231 312.368 355.427 312.331L357.093 311.895L363.205 310.367C368.363 309.08 375.474 307.21 383.327 305.136C391.179 303.061 398.31 301.265 403.495 300.08C406.088 299.487 408.199 299.033 409.653 298.746L411.338 298.422C411.535 298.374 411.737 298.349 411.94 298.348Z" fill="#263238"/>
<path d="M352.102 69.626H127.538V377.336H352.102V69.626Z" fill="#092C5A"/>
<path d="M343.222 359.038H301.635H146.243V82.062H343.222V324.582V359.038Z" fill="#E0E0E0"/>
<path d="M340.111 353.899H298.894H144.9V78.4043H340.111V319.627V353.899Z" fill="#EBEBEB"/>
<path d="M319.137 332.462L296.653 350.769H141.261V79.0989H338.24V316.97L319.137 332.462Z" fill="#FAFAFA"/>
<path d="M319.137 332.434C319.137 332.434 319.535 332.091 320.34 331.434L323.943 328.489L338.194 316.886V316.942C338.194 277.865 338.12 191.006 338.055 79.0711L338.268 79.2934H143.002H141.289L141.53 79.0526C141.53 181.19 141.53 275.411 141.474 350.722L141.289 350.528L296.681 350.639H296.626L313.516 336.944L317.748 333.527C318.674 332.767 319.164 332.397 319.164 332.397L317.775 333.554L313.544 337.064L296.709 350.824L141.261 350.954H141.067V350.76C141.067 275.448 141.067 181.227 141.021 79.0896V78.8489H142.974H338.24H338.462V79.0619C338.397 191.034 338.342 277.856 338.323 316.933L324.017 328.48L320.396 331.508L319.137 332.434Z" fill="#263238"/>
<path d="M213.174 60.1157H267.021C270.496 60.1157 273.829 61.4962 276.287 63.9535C278.744 66.4108 280.124 69.7435 280.124 73.2186V87.7476H199.507V73.7742C199.509 70.1509 200.95 66.6769 203.513 64.1157C206.076 61.5545 209.551 60.1157 213.174 60.1157Z" fill="#6AAEDF"/>
<path d="M219.258 60.1159L216.314 45.2073H262.734L260.15 60.1159H219.258Z" fill="#6AAEDF"/>
<path d="M195.043 155.568H161.865V122.38H195.043V155.568ZM162.791 154.642H194.117V123.306H162.791V154.642Z" fill="#6AAEDF"/>
<path d="M312.321 130.399C312.321 130.529 289.218 130.64 260.734 130.64C232.25 130.64 209.137 130.529 209.137 130.399C209.137 130.27 232.232 130.158 260.734 130.158C289.236 130.158 312.321 130.26 312.321 130.399Z" fill="#263238"/>
<path d="M312.321 137.289C312.321 137.428 289.218 137.529 260.734 137.529C232.25 137.529 209.137 137.428 209.137 137.289C209.137 137.15 232.232 137.048 260.734 137.048C289.236 137.048 312.321 137.159 312.321 137.289Z" fill="#263238"/>
<path d="M312.321 144.187C312.321 144.317 289.218 144.428 260.734 144.428C232.25 144.428 209.137 144.317 209.137 144.187C209.137 144.058 232.232 143.947 260.734 143.947C289.236 143.947 312.321 144.058 312.321 144.187Z" fill="#263238"/>
<path d="M312.321 151.086C312.321 151.216 289.218 151.327 260.734 151.327C232.25 151.327 209.137 151.216 209.137 151.086C209.137 150.956 232.232 150.845 260.734 150.845C289.236 150.845 312.321 150.938 312.321 151.086Z" fill="#263238"/>
<path d="M195.043 206.711H161.865V173.523H195.043V206.711ZM162.791 205.785H194.117V174.449H162.791V205.785Z" fill="#6AAEDF"/>
<path d="M168.458 190.802L172.866 186.07L180.209 191.941L197.016 175.625L201.044 180.375L179.885 201.248L168.458 190.802Z" fill="#6AAEDF"/>
<path d="M312.321 181.542C312.321 181.672 289.218 181.783 260.734 181.783C232.25 181.783 209.137 181.672 209.137 181.542C209.137 181.413 232.232 181.302 260.734 181.302C289.236 181.302 312.321 181.413 312.321 181.542Z" fill="#263238"/>
<path d="M312.321 188.441C312.321 188.571 289.218 188.682 260.734 188.682C232.25 188.682 209.137 188.571 209.137 188.441C209.137 188.311 232.232 188.2 260.734 188.2C289.236 188.2 312.321 188.302 312.321 188.441Z" fill="#263238"/>
<path d="M312.321 195.33C312.321 195.469 289.218 195.571 260.734 195.571C232.25 195.571 209.137 195.469 209.137 195.33C209.137 195.191 232.232 195.09 260.734 195.09C289.236 195.09 312.321 195.201 312.321 195.33Z" fill="#263238"/>
<path d="M312.321 202.229C312.321 202.359 289.218 202.47 260.734 202.47C232.25 202.47 209.137 202.359 209.137 202.229C209.137 202.099 232.232 201.988 260.734 201.988C289.236 201.988 312.321 202.099 312.321 202.229Z" fill="#263238"/>
<path d="M195.043 256.206H161.865V223.018H195.043V256.206ZM162.791 255.28H194.117V223.944H162.791V255.28Z" fill="#6AAEDF"/>
<path d="M168.458 240.297L172.866 235.565L180.209 241.436L197.016 225.12L201.044 229.87L179.885 250.742L168.458 240.297Z" fill="#6AAEDF"/>
<path d="M312.321 231.037C312.321 231.167 289.218 231.278 260.734 231.278C232.25 231.278 209.137 231.167 209.137 231.037C209.137 230.907 232.232 230.796 260.734 230.796C289.236 230.796 312.321 230.898 312.321 231.037Z" fill="#263238"/>
<path d="M312.321 237.926C312.321 238.065 289.218 238.167 260.734 238.167C232.25 238.167 209.137 238.065 209.137 237.926C209.137 237.787 232.232 237.686 260.734 237.686C289.236 237.686 312.321 237.797 312.321 237.926Z" fill="#263238"/>
<path d="M312.321 244.825C312.321 244.964 289.218 245.066 260.734 245.066C232.25 245.066 209.137 244.964 209.137 244.825C209.137 244.686 232.232 244.584 260.734 244.584C289.236 244.584 312.321 244.695 312.321 244.825Z" fill="#263238"/>
<path d="M312.321 251.724C312.321 251.853 289.218 251.965 260.734 251.965C232.25 251.965 209.137 251.853 209.137 251.724C209.137 251.594 232.232 251.483 260.734 251.483C289.236 251.483 312.321 251.594 312.321 251.724Z" fill="#263238"/>
<path d="M195.043 303.996H161.865V270.809H195.043V303.996ZM162.791 303.07H194.117V271.735H162.791V303.07Z" fill="#6AAEDF"/>
<path d="M168.458 288.088L172.866 283.356L180.209 289.227L197.016 272.911L201.044 277.652L179.885 298.524L168.458 288.088Z" fill="#6AAEDF"/>
<path d="M312.321 278.819C312.321 278.957 289.218 279.059 260.734 279.059C232.25 279.059 209.137 278.957 209.137 278.819C209.137 278.68 232.232 278.578 260.734 278.578C289.236 278.578 312.321 278.726 312.321 278.819Z" fill="#263238"/>
<path d="M312.321 285.717C312.321 285.847 289.218 285.958 260.734 285.958C232.25 285.958 209.137 285.847 209.137 285.717C209.137 285.588 232.232 285.477 260.734 285.477C289.236 285.477 312.321 285.588 312.321 285.717Z" fill="#263238"/>
<path d="M312.321 292.616C312.321 292.746 289.218 292.857 260.734 292.857C232.25 292.857 209.137 292.746 209.137 292.616C209.137 292.486 232.232 292.375 260.734 292.375C289.236 292.375 312.321 292.477 312.321 292.616Z" fill="#263238"/>
<path d="M312.321 299.505C312.321 299.644 289.218 299.746 260.734 299.746C232.25 299.746 209.137 299.644 209.137 299.505C209.137 299.367 232.232 299.265 260.734 299.265C289.236 299.265 312.321 299.376 312.321 299.505Z" fill="#263238"/>
<path d="M302.83 305.793L281.235 350.519H296.653L302.83 305.793Z" fill="#E0E0E0"/>
<path d="M296.653 350.769L302.83 306.043L338.24 316.97L296.653 350.769Z" fill="#FAFAFA"/>
<path d="M296.653 350.769L308.562 340.962L338.092 316.785L338.175 317.192L324.498 312.988L302.802 306.256L303.089 306.071C301.237 319.035 299.654 330.193 298.533 338.101C297.413 345.796 296.839 349.769 296.681 350.769C296.678 350.701 296.678 350.633 296.681 350.565L296.764 349.954C296.839 349.37 296.94 348.556 297.079 347.518C297.366 345.342 297.774 342.222 298.292 338.258C299.367 330.286 300.867 319.072 302.617 305.969V305.71L302.867 305.784L324.619 312.488L338.286 316.71L338.712 316.84L338.37 317.118C326.415 326.758 315.96 335.184 308.478 341.194L299.746 348.204L297.413 350.056L296.82 350.528L296.653 350.769Z" fill="#263238"/>
<g opacity="0.3">
<path d="M259.521 45.2073L256.965 60.1159H260.15L262.734 45.2073H258.669" fill="black"/>
</g>
<path d="M123.556 202.442C124.673 202.526 125.795 202.385 126.855 202.026C127.916 201.667 128.893 201.098 129.729 200.353C130.564 199.608 131.241 198.702 131.719 197.69C132.197 196.677 132.466 195.579 132.511 194.46C132.687 189.923 132.844 185.339 132.844 185.339C132.844 185.339 139.715 184.7 140.252 177.931C140.789 171.162 140.52 155.438 140.52 155.438C136.754 153.538 132.548 152.679 128.338 152.949C124.128 153.219 120.067 154.609 116.574 156.975L116.991 180.903V193.784C117 198.062 119.25 202.118 123.556 202.442Z" fill="#FFBE9D"/>
<path d="M133.437 169.597C132.935 168.875 132.179 168.37 131.321 168.181C130.463 167.992 129.565 168.134 128.807 168.578C128.037 169.113 127.482 169.904 127.241 170.809C127.001 171.715 127.089 172.677 127.492 173.523C127.842 174.151 128.32 174.699 128.894 175.133C129.467 175.567 130.125 175.876 130.825 176.042C131.446 176.177 131.996 176.533 132.373 177.045C132.749 177.556 132.927 178.187 132.872 178.82C132.587 180.607 131.752 182.261 130.483 183.552C128.385 185.686 125.593 187 122.612 187.256C119.713 187.598 116.398 186.996 114.713 184.617C113.481 182.885 113.398 180.616 113.352 178.496C113.247 173.483 113.142 168.47 113.037 163.457C112.928 161.651 113.043 159.837 113.379 158.059C113.734 156.265 114.753 154.671 116.231 153.596C117.889 152.503 119.982 152.41 121.862 151.808C124.223 151.04 126.223 149.484 128.427 148.354C130.631 147.225 133.325 146.549 135.539 147.66C137.131 148.456 138.196 150.04 139.733 150.919C141.937 152.169 144.928 151.845 145.993 155.123C146.368 156.244 146.368 157.457 145.993 158.577C144.502 162.976 139.057 164.754 135.131 162.856C135.057 163.596 135.789 165.254 135.001 167.606C134.751 168.365 134.668 169.504 133.492 169.532" fill="#263238"/>
<path d="M114.667 155.568C115.746 153.417 116.483 151.112 116.852 148.734C117.026 147.543 116.924 146.328 116.553 145.183C116.182 144.038 115.553 142.994 114.713 142.132C113.473 141.055 111.872 140.489 110.231 140.548C108.673 140.637 107.18 141.205 105.956 142.175C104.733 143.144 103.839 144.468 103.397 145.965C103.016 147.475 103.075 149.062 103.567 150.539C104.059 152.016 104.964 153.321 106.175 154.299C107.413 155.25 108.88 155.857 110.428 156.059C111.976 156.26 113.55 156.05 114.991 155.448" fill="#263238"/>
<path d="M116 153.114C115.95 153.945 115.592 154.728 114.997 155.31C114.401 155.892 113.61 156.232 112.778 156.262C112.778 156.124 113.778 155.855 114.63 154.966C115.481 154.077 115.87 153.077 116 153.114Z" fill="#83C5BE"/>
<path d="M113.768 154.781C113.238 155.337 112.61 155.792 111.916 156.124C111.175 156.546 110.343 156.784 109.49 156.818C108.949 156.847 108.408 156.747 107.914 156.524C107.419 156.302 106.985 155.965 106.647 155.54C106.349 155.094 106.149 154.588 106.063 154.057C105.977 153.527 106.006 152.984 106.147 152.466C106.362 151.643 106.751 150.876 107.286 150.216C107.73 149.59 108.274 149.042 108.898 148.595C108.485 149.235 108.04 149.853 107.564 150.447C107.099 151.092 106.766 151.822 106.583 152.596C106.467 153.052 106.448 153.527 106.526 153.991C106.604 154.455 106.778 154.897 107.036 155.29C107.332 155.652 107.708 155.94 108.133 156.133C108.559 156.325 109.023 156.417 109.49 156.401C110.281 156.389 111.06 156.199 111.768 155.846C112.972 155.225 113.722 154.707 113.768 154.781Z" fill="#263238"/>
<path d="M102.212 162.457C102.351 162.693 102.46 162.945 102.536 163.207C102.776 163.901 103.116 164.556 103.545 165.152C103.831 165.583 104.231 165.925 104.7 166.141C105.17 166.357 105.69 166.438 106.203 166.374C106.817 166.201 107.375 165.872 107.825 165.419C108.274 164.967 108.599 164.406 108.768 163.791C109.101 162.496 109.333 161.177 109.462 159.846C109.593 158.705 110.042 157.623 110.759 156.725C111.272 156.135 111.971 155.736 112.74 155.596C113.019 155.528 113.312 155.554 113.574 155.67C113.574 155.67 113.268 155.67 112.778 155.781C112.082 155.973 111.466 156.382 111.018 156.948C110.387 157.818 110 158.841 109.898 159.911C109.791 161.274 109.565 162.625 109.222 163.948C109.031 164.643 108.658 165.274 108.142 165.777C107.626 166.28 106.986 166.636 106.286 166.81C105.647 166.912 104.992 166.787 104.434 166.458C103.972 166.177 103.574 165.801 103.268 165.356C102.843 164.719 102.53 164.014 102.342 163.272C102.247 163.011 102.202 162.735 102.212 162.457Z" fill="#263238"/>
<path d="M98.869 219.582C98.869 219.582 95.3965 244.973 98.869 248.196C102.342 251.418 105.666 250.344 105.666 250.344L112.268 244.788L113.565 219.545L98.869 219.582Z" fill="#FFBE9D"/>
<path d="M170.588 148.308L174.995 143.576L182.339 149.447L199.146 133.131L203.174 137.881L182.015 158.753L170.588 148.308Z" fill="#6AAEDF"/>
<path d="M191.293 149.595L184.904 153.697C184.617 151.169 182.691 148.669 182.783 149.938C182.876 151.206 182.783 157.79 182.783 157.79L171.403 181.764C169.856 185.561 166.717 187.95 164.374 188.515L153.716 191.682L157.874 205.748L172.69 200.84C174.581 200.213 176.299 199.152 177.706 197.742C179.113 196.332 180.17 194.612 180.792 192.719L190.978 161.68C191.655 159.68 192.199 157.639 192.608 155.568C193.052 152.966 191.293 149.595 191.293 149.595Z" fill="#FFBE9D"/>
<path d="M138.946 411.811L138.78 404.708L125.464 404.921L125.584 415.32L126.418 415.367C130.122 415.505 145.132 415.839 147.577 415.061C150.299 414.181 138.946 411.811 138.946 411.811Z" fill="#6AAEDF"/>
<g opacity="0.5">
<path d="M130.418 415.144C130.193 414.036 129.571 413.047 128.668 412.366C127.778 411.674 126.66 411.344 125.538 411.44L125.593 415.144H130.418Z" fill="white"/>
</g>
<g opacity="0.4">
<path d="M144.456 413.172C144.456 413.172 148.438 414.246 147.956 414.913C147.475 415.579 132.27 415.839 125.547 415.32V415.024L143.289 414.903C143.289 414.903 143.724 413.218 144.456 413.172Z" fill="white"/>
</g>
<path d="M125.39 415.015H125.621H126.279L128.705 415.08C130.751 415.126 133.575 415.144 136.696 415.08C139.817 415.015 142.65 414.931 144.687 414.829L147.114 414.691L147.771 414.644H147.993H147.762H147.104L144.687 414.737C142.641 414.802 139.817 414.894 136.696 414.941C133.575 414.987 130.751 414.941 128.705 414.941H126.288H125.362L125.39 415.015Z" fill="#263238"/>
<path d="M143.345 415.107C143.441 414.705 143.587 414.316 143.78 413.95C144.013 413.612 144.283 413.301 144.586 413.024C144.192 413.209 143.862 413.508 143.641 413.883C143.42 414.258 143.316 414.691 143.345 415.126V415.107Z" fill="#263238"/>
<path d="M139.382 413.172C139.382 413.172 139.604 412.968 139.798 412.663C139.993 412.357 140.104 412.079 140.067 412.061C140.03 412.042 139.845 412.264 139.659 412.57C139.474 412.876 139.344 413.153 139.382 413.172Z" fill="#263238"/>
<path d="M138.298 412.626C138.298 412.626 138.53 412.514 138.761 412.301C138.993 412.088 139.141 411.894 139.113 411.866C139.085 411.838 138.872 411.977 138.65 412.181C138.428 412.385 138.261 412.588 138.298 412.626Z" fill="#263238"/>
<path d="M137.594 411.375C137.816 411.456 138.055 411.482 138.289 411.449C138.524 411.477 138.762 411.448 138.983 411.366C138.759 411.295 138.523 411.27 138.289 411.292C138.054 411.266 137.816 411.294 137.594 411.375Z" fill="#263238"/>
<path d="M137.344 410.496C137.578 410.639 137.848 410.713 138.122 410.709C138.397 410.748 138.677 410.706 138.928 410.588C138.663 410.563 138.396 410.563 138.131 410.588C137.872 410.533 137.609 410.502 137.344 410.496Z" fill="#263238"/>
<path d="M139.826 412.005C140.108 412.057 140.396 412.057 140.678 412.005C140.993 411.963 141.303 411.892 141.604 411.792C141.784 411.736 141.958 411.661 142.122 411.57C142.175 411.542 142.22 411.504 142.257 411.458C142.294 411.412 142.32 411.358 142.335 411.301C142.346 411.237 142.339 411.171 142.315 411.11C142.29 411.05 142.249 410.997 142.197 410.959C141.867 410.806 141.494 410.771 141.142 410.861C140.789 410.95 140.478 411.158 140.261 411.45C140.137 411.622 140.045 411.817 139.993 412.024C139.976 412.1 139.976 412.179 139.993 412.255C140.081 411.993 140.209 411.747 140.372 411.524C140.563 411.297 140.813 411.127 141.095 411.033C141.431 410.916 141.8 410.936 142.122 411.088C142.252 411.19 142.206 411.348 142.058 411.44C141.904 411.526 141.743 411.598 141.576 411.653C141.274 411.758 140.965 411.838 140.65 411.894C140.141 411.977 139.826 411.977 139.826 412.005Z" fill="#263238"/>
<path d="M140.039 412.07C140.143 411.891 140.176 411.679 140.132 411.477C140.097 411.254 140.011 411.042 139.882 410.857C139.808 410.732 139.704 410.627 139.58 410.552C139.455 410.478 139.314 410.436 139.169 410.431C139.125 410.44 139.084 410.457 139.047 410.482C139.011 410.507 138.98 410.539 138.956 410.576C138.931 410.613 138.915 410.654 138.907 410.698C138.899 410.741 138.9 410.786 138.909 410.829C138.93 410.965 138.98 411.095 139.057 411.209C139.17 411.399 139.31 411.57 139.474 411.718C139.606 411.872 139.775 411.99 139.965 412.061C139.965 412.061 139.798 411.913 139.557 411.644C139.419 411.486 139.295 411.315 139.187 411.135C139.067 410.959 138.983 410.635 139.187 410.588C139.391 410.542 139.622 410.774 139.752 410.94C139.876 411.105 139.964 411.295 140.011 411.496C140.037 411.686 140.046 411.878 140.039 412.07Z" fill="#263238"/>
<path d="M125.612 411.366C125.612 411.366 125.992 411.366 126.593 411.366C127.379 411.441 128.127 411.736 128.751 412.217C129.375 412.699 129.85 413.348 130.122 414.089C130.334 414.653 130.362 415.015 130.39 415.015C130.408 414.926 130.408 414.835 130.39 414.746C130.36 414.504 130.307 414.265 130.233 414.033C129.976 413.259 129.492 412.581 128.845 412.086C128.198 411.59 127.417 411.301 126.603 411.255C126.36 411.228 126.114 411.228 125.871 411.255C125.778 411.274 125.69 411.312 125.612 411.366Z" fill="#263238"/>
<path d="M126.908 405.81C126.825 406.718 126.801 407.631 126.834 408.542C126.805 409.469 126.832 410.396 126.918 411.32C127.002 410.396 127.027 409.469 126.992 408.542C127.014 407.63 126.986 406.719 126.908 405.81Z" fill="#263238"/>
<path d="M132.066 413.82C132.708 413.952 133.365 414.005 134.02 413.978C134.674 414.005 135.328 413.943 135.965 413.792C135.965 413.746 135.039 413.792 134.02 413.792C133.001 413.792 132.075 413.774 132.066 413.82Z" fill="#263238"/>
<path d="M129.464 413.848C129.464 413.848 129.538 414.033 129.621 414.237C129.705 414.441 129.77 414.607 129.816 414.607C129.862 414.607 129.881 414.394 129.77 414.163C129.659 413.931 129.492 413.82 129.464 413.848Z" fill="#263238"/>
<path d="M128.455 412.644C128.455 412.644 128.51 412.811 128.658 412.95C128.807 413.089 128.936 413.172 128.964 413.144C128.992 413.116 128.908 412.968 128.77 412.839C128.631 412.709 128.492 412.607 128.455 412.644Z" fill="#263238"/>
<path d="M127.038 412.07C127.038 412.07 127.232 412.07 127.427 412.172C127.621 412.274 127.76 412.339 127.797 412.311C127.834 412.283 127.723 412.098 127.473 412.024C127.223 411.95 127.029 412.07 127.038 412.07Z" fill="#263238"/>
<path d="M126.038 411.857C126.038 411.857 126.093 411.968 126.205 412.005C126.316 412.042 126.417 412.051 126.436 412.005C126.455 411.959 126.371 411.894 126.26 411.857C126.149 411.82 126.047 411.811 126.038 411.857Z" fill="#263238"/>
<path d="M91.9426 409.542L96.4615 404.051L86.2199 395.522L79.5342 403.486L80.1269 404.06C82.8215 406.57 94.0169 416.626 96.3689 417.626C99.008 418.746 91.9426 409.542 91.9426 409.542Z" fill="#6AAEDF"/>
<g opacity="0.5">
<path d="M83.34 406.514C83.9065 405.524 84.0879 404.36 83.8493 403.245C83.6222 402.143 82.9872 401.167 82.0714 400.513L79.636 403.356L83.34 406.514Z" fill="white"/>
</g>
<g opacity="0.4">
<path d="M95.267 414.19C95.267 414.19 97.582 417.607 96.7856 417.793C95.9892 417.978 84.2661 408.236 79.5342 403.486L79.7379 403.273L93.2668 414.755C93.2668 414.755 94.6465 413.718 95.267 414.19Z" fill="white"/>
</g>
<path d="M79.5803 403.134L79.7378 403.301L80.2193 403.754L82.0157 405.384C83.5344 406.745 85.6642 408.607 88.0625 410.607C90.4608 412.607 92.6925 414.376 94.2852 415.635L96.2113 417.107L96.7391 417.496L96.9336 417.626L96.7576 417.468L96.2483 417.052L94.3963 415.542C92.7944 414.265 90.5997 412.487 88.2014 410.486C85.8031 408.486 83.664 406.644 82.1268 405.301L80.2748 403.708L79.7748 403.273L79.5803 403.134Z" fill="#263238"/>
<path d="M93.1277 414.913C93.4652 414.667 93.8323 414.465 94.2204 414.311C94.6208 414.209 95.0302 414.147 95.4427 414.126C95.0302 413.974 94.5773 413.974 94.1648 414.126C93.7353 414.254 93.3668 414.534 93.1277 414.913Z" fill="#263238"/>
<path d="M91.387 410.857C91.387 410.903 91.6926 410.857 92.0352 410.736C92.3778 410.616 92.6556 410.505 92.6371 410.459C92.6186 410.412 92.3315 410.459 91.9889 410.579C91.7706 410.627 91.5653 410.722 91.387 410.857Z" fill="#263238"/>
<path d="M90.9241 409.727C90.9241 409.727 91.1741 409.801 91.4889 409.792C91.8038 409.783 92.0445 409.736 92.0445 409.69C92.0445 409.644 91.7852 409.616 91.4796 409.625C91.2891 409.616 91.099 409.651 90.9241 409.727Z" fill="#263238"/>
<path d="M91.2017 408.366C91.2017 408.366 91.3869 408.625 91.6832 408.875C91.8504 409.044 92.0484 409.179 92.2666 409.273C92.2666 409.273 92.0814 409.005 91.7851 408.755C91.4888 408.505 91.2388 408.292 91.2017 408.366Z" fill="#263238"/>
<path d="M91.5906 407.496C91.6915 407.75 91.8452 407.979 92.0415 408.169C92.2379 408.359 92.4725 408.505 92.7296 408.598C92.5503 408.403 92.3585 408.221 92.1555 408.051C91.8499 407.755 91.674 407.44 91.5906 407.496Z" fill="#263238"/>
<path d="M92.4797 410.218C92.6633 410.439 92.8862 410.624 93.1371 410.764C93.3998 410.934 93.6791 411.077 93.9705 411.19C94.1427 411.268 94.3227 411.327 94.5076 411.366C94.6241 411.386 94.7437 411.359 94.841 411.292C94.892 411.253 94.9305 411.199 94.9519 411.139C94.9733 411.078 94.9766 411.012 94.9614 410.95C94.8185 410.611 94.5615 410.333 94.2351 410.164C93.9087 409.994 93.5333 409.945 93.1742 410.024C92.9627 410.065 92.7633 410.154 92.5908 410.283C92.5259 410.324 92.4694 410.378 92.4241 410.44C92.6613 410.296 92.9212 410.193 93.1927 410.135C93.4866 410.084 93.7889 410.119 94.0631 410.236C94.3932 410.364 94.6594 410.617 94.8039 410.94C94.8039 411.107 94.7021 411.2 94.5261 411.172C94.3553 411.133 94.1881 411.081 94.0261 411.014C93.7408 410.908 93.465 410.778 93.202 410.625C92.7482 410.449 92.4982 410.218 92.4797 410.218Z" fill="#263238"/>
<path d="M92.6001 410.431C92.6001 410.431 92.8408 410.357 93.0631 410.042C93.1824 409.851 93.2582 409.636 93.2853 409.412C93.3065 409.268 93.2932 409.12 93.2466 408.982C93.1999 408.844 93.1211 408.718 93.0168 408.616C92.9369 408.573 92.8434 408.564 92.7566 408.59C92.6698 408.616 92.5969 408.675 92.5538 408.755C92.4833 408.87 92.4391 409 92.4241 409.135C92.3971 409.353 92.3971 409.574 92.4241 409.792C92.4241 409.996 92.475 410.196 92.5723 410.375C92.5723 410.375 92.5723 410.144 92.5723 409.792C92.5698 409.581 92.5884 409.37 92.6278 409.162C92.6278 408.949 92.7945 408.653 92.989 408.755C93.1834 408.857 93.1927 409.181 93.1927 409.394C93.1762 409.599 93.1162 409.797 93.0168 409.977C92.8951 410.143 92.7553 410.296 92.6001 410.431Z" fill="#263238"/>
<path d="M82.127 400.513C82.127 400.513 82.4418 400.726 82.8585 401.162C83.4009 401.735 83.7756 402.446 83.942 403.217C84.0953 403.991 84.0312 404.793 83.7567 405.532C83.5438 406.107 83.3123 406.412 83.34 406.458C83.4097 406.397 83.4691 406.325 83.516 406.245C83.654 406.046 83.7689 405.832 83.8586 405.606C84.1787 404.853 84.2626 404.02 84.0993 403.217C83.9321 402.417 83.529 401.685 82.9419 401.115C82.7669 400.945 82.5744 400.792 82.3677 400.662C82.2977 400.597 82.216 400.547 82.127 400.513Z" fill="#263238"/>
<path d="M86.7384 397.134C86.0806 397.771 85.4622 398.449 84.8864 399.161C84.2752 399.841 83.7003 400.551 83.1641 401.291C83.826 400.661 84.4447 399.986 85.0161 399.273C85.6263 398.589 86.2012 397.875 86.7384 397.134Z" fill="#263238"/>
<path d="M85.4236 406.579C85.8193 407.098 86.2799 407.565 86.794 407.968C87.2748 408.415 87.8136 408.795 88.396 409.097C88.396 409.097 87.72 408.542 86.9052 407.847C86.0903 407.153 85.4606 406.514 85.4236 406.579Z" fill="#263238"/>
<path d="M83.4233 404.903C83.4233 404.903 83.3585 405.088 83.3029 405.301C83.2474 405.514 83.164 405.671 83.2011 405.699C83.2381 405.727 83.3863 405.588 83.4604 405.338C83.5344 405.088 83.4696 404.894 83.4233 404.903Z" fill="#263238"/>
<path d="M83.4511 403.328C83.4048 403.328 83.3863 403.495 83.4048 403.69C83.4233 403.884 83.4696 404.042 83.5159 404.042C83.5622 404.042 83.5807 403.875 83.5159 403.68C83.4511 403.486 83.4974 403.328 83.4511 403.328Z" fill="#263238"/>
<path d="M82.7288 401.995C82.7288 402.041 82.8492 402.153 82.9511 402.328C83.0529 402.504 83.0992 402.68 83.1455 402.68C83.1918 402.68 83.2196 402.467 83.09 402.245C82.9603 402.023 82.7473 401.958 82.7288 401.995Z" fill="#263238"/>
<path d="M82.127 401.152C82.127 401.152 82.127 401.282 82.127 401.384C82.127 401.486 82.2659 401.551 82.3029 401.532C82.34 401.514 82.3029 401.402 82.3029 401.301C82.3029 401.199 82.164 401.134 82.127 401.152Z" fill="#263238"/>
<path d="M120.003 261.861C120.003 261.861 115.567 280.622 116.827 284.335C118.086 288.049 126.207 290.188 126.207 290.188L125.929 341.571L81 397.131L97.5754 410.688C97.5754 410.688 146.227 355.045 150.514 344.942C154.802 334.839 147.736 261 147.736 261L120.003 261.861Z" fill="#263238"/>
<path d="M142.604 253.104L144.799 409.153L121.954 409.292L110.481 282.171C108.055 279.856 104.638 275.892 105.11 267.049L105.666 256.78L142.604 253.104Z" fill="#263238"/>
<path d="M118.528 349.148C118.561 349.066 118.605 348.988 118.658 348.917C118.778 348.75 118.917 348.537 119.093 348.278L120.787 345.879L126.992 337.286V337.407C126.492 331.989 125.89 325.424 125.241 318.34C124.408 309.08 123.741 300.654 123.343 294.551C123.139 291.505 123.01 289.042 122.936 287.338C122.936 286.523 122.88 285.865 122.871 285.365C122.843 285.138 122.843 284.908 122.871 284.68C122.916 284.906 122.944 285.135 122.954 285.365C122.954 285.856 123.047 286.514 123.112 287.328C123.251 289.079 123.436 291.523 123.677 294.533C124.158 300.617 124.88 309.015 125.714 318.294C126.334 325.406 126.964 331.962 127.381 337.407V337.471V337.527L121.037 346.009L119.25 348.352L118.769 348.954C118.574 349.102 118.528 349.157 118.528 349.148Z" fill="#455A64"/>
<path d="M125.529 284.68C123.484 284.571 121.456 284.261 119.473 283.754C117.455 283.413 115.476 282.873 113.565 282.143C115.589 282.402 117.596 282.783 119.574 283.282C121.584 283.634 123.572 284.101 125.529 284.68Z" fill="#455A64"/>
<path d="M141.178 337.99C139.206 337.172 137.131 336.63 135.011 336.379C132.875 336.293 130.737 336.502 128.658 336.999C129.201 336.656 129.805 336.421 130.436 336.305C131.946 335.911 133.511 335.773 135.066 335.897C136.612 336.021 138.126 336.4 139.548 337.018C140.145 337.242 140.697 337.571 141.178 337.99Z" fill="#455A64"/>
<path d="M149.243 345.194C149.345 345.278 142.919 353.908 134.881 364.464C126.843 375.021 120.241 383.531 120.139 383.457C120.037 383.382 126.464 374.743 134.501 364.177C142.539 353.612 149.142 345.111 149.243 345.194Z" fill="#455A64"/>
<path d="M146.151 264.688C145.887 265.364 145.442 265.953 144.863 266.392C144.202 266.971 143.427 267.408 142.589 267.674C141.75 267.94 140.866 268.029 139.991 267.937C139.116 267.845 138.27 267.573 137.505 267.138C136.741 266.703 136.074 266.115 135.548 265.41C135.058 264.869 134.736 264.196 134.622 263.475C134.978 264.067 135.368 264.639 135.789 265.188C136.847 266.471 138.367 267.287 140.021 267.46C141.675 267.633 143.331 267.15 144.632 266.114C145.163 265.665 145.67 265.189 146.151 264.688Z" fill="#455A64"/>
<path d="M114.917 184.394C111.152 180.818 108.933 175.913 108.73 170.725C108.528 165.536 110.359 160.473 113.833 156.614" fill="#263238"/>
<path d="M102.073 198.951C102.073 198.951 97.1097 204.563 96.0818 226.018C96.0818 226.018 110.222 228.703 110.481 227.935C110.74 227.166 102.073 198.951 102.073 198.951Z" fill="#6AAEDF"/>
<g opacity="0.3">
<path d="M101.991 199C101.991 199 97.0279 204.612 96 226.067C96 226.067 110.14 228.752 110.399 227.984C110.658 227.215 101.991 199 101.991 199Z" fill="black"/>
</g>
<path d="M104.81 261.034H148.231L147.527 254.246C147.527 254.246 142.563 228.448 142.6 228.105L143.378 226.466C144.393 224.338 144.935 222.016 144.969 219.658C145.003 217.301 144.526 214.964 143.573 212.808L164.871 205.539L159.667 188C150.018 189.621 135.433 191.445 135.433 191.445L133.266 191.621C133.266 191.621 118.21 192.408 117.886 192.445C111.589 193.214 104.264 193.695 101.588 200.436C100.152 204.038 101.514 209.446 103.857 215.021L109.413 232.152C111.635 241.569 108.088 241.116 106.135 250.598C105.82 252.024 104.783 259.719 104.81 261.034Z" fill="#6AAEDF"/>
<g opacity="0.3">
<path d="M104.81 260.034H148.231L147.527 253.246C147.527 253.246 142.563 227.448 142.6 227.105L143.378 225.466C144.393 223.338 144.935 221.016 144.969 218.658C145.003 216.301 144.526 213.964 143.573 211.808L164.871 204.539L159.667 187C150.018 188.621 135.433 190.445 135.433 190.445L133.266 190.621C133.266 190.621 118.21 191.408 117.886 191.445C111.589 192.214 104.264 192.695 101.588 199.436C100.152 203.038 101.514 208.446 103.857 214.021L109.413 231.152C111.635 240.569 108.088 240.116 106.135 249.598C105.82 251.024 104.783 258.719 104.81 260.034Z" fill="black"/>
</g>
<path d="M164.189 206.239C163.895 206.404 163.585 206.537 163.263 206.637C162.652 206.859 161.754 207.165 160.642 207.563C158.42 208.313 155.327 209.304 151.92 210.396C148.512 211.489 145.438 212.572 143.308 213.461C142.215 213.906 141.354 214.295 140.752 214.554C140.46 214.716 140.149 214.84 139.826 214.925C140.095 214.711 140.387 214.527 140.696 214.378C141.28 214.073 142.122 213.628 143.197 213.147C146.004 211.923 148.876 210.854 151.799 209.943C155.216 208.85 158.281 207.905 160.568 207.239C161.689 206.905 162.606 206.646 163.235 206.47C163.542 206.354 163.863 206.276 164.189 206.239Z" fill="#263238"/>
<path d="M161.67 196.895C161.67 197.025 148.827 197.136 132.964 197.136C117.102 197.136 104.258 197.025 104.258 196.895C104.258 196.766 117.093 196.655 132.964 196.655C148.836 196.655 161.67 196.766 161.67 196.895Z" fill="#FAFAFA"/>
<path d="M162.976 205.424C162.976 205.553 148.688 205.665 131.066 205.665C113.444 205.665 99.1653 205.553 99.1653 205.424C99.1653 205.294 113.444 205.183 131.066 205.183C148.688 205.183 162.976 205.294 162.976 205.424Z" fill="#FAFAFA"/>
<path d="M102.786 215.128C101.918 215.364 101.015 215.445 100.119 215.369C99.2259 215.445 98.3263 215.363 97.4614 215.128C98.3263 214.893 99.2259 214.812 100.119 214.888C101.015 214.811 101.918 214.893 102.786 215.128Z" fill="#FAFAFA"/>
<path d="M144.456 215.425C144.456 215.554 135.113 215.665 123.593 215.665C112.074 215.665 102.73 215.554 102.73 215.425C102.73 215.295 112.064 215.184 123.593 215.184C135.122 215.184 144.456 215.286 144.456 215.425Z" fill="#FAFAFA"/>
<path d="M143.53 225.416C143.53 225.555 135.14 225.657 124.806 225.657C114.472 225.657 106.073 225.555 106.073 225.416C106.073 225.277 114.454 225.175 124.806 225.175C135.159 225.175 143.53 225.286 143.53 225.416Z" fill="#FAFAFA"/>
<path d="M143.271 234.685C143.271 234.815 135.678 234.926 126.306 234.926C116.935 234.926 109.324 234.815 109.324 234.685C109.324 234.556 116.926 234.445 126.306 234.445C135.687 234.445 143.271 234.547 143.271 234.685Z" fill="#FAFAFA"/>
<path d="M144.762 242.177C144.762 242.316 136.631 242.418 126.603 242.418C116.574 242.418 108.444 242.316 108.444 242.177C108.444 242.038 116.574 241.936 126.603 241.936C136.631 241.936 144.762 242.047 144.762 242.177Z" fill="#FAFAFA"/>
<path d="M147.114 251.733C147.114 251.872 137.854 251.974 126.455 251.974C115.055 251.974 105.795 251.872 105.795 251.733C105.795 251.594 115.055 251.492 126.455 251.492C137.854 251.492 147.114 251.603 147.114 251.733Z" fill="#FAFAFA"/>
<path d="M108.685 231.759C108.51 231.498 108.378 231.21 108.296 230.907L107.37 228.537C106.601 226.537 105.518 223.777 104.407 220.694C103.295 217.61 102.36 214.795 101.777 212.73C101.49 211.693 101.267 210.878 101.147 210.267C101.058 209.965 101.005 209.655 100.99 209.341C101.418 210.416 101.789 211.513 102.101 212.628C102.767 214.665 103.74 217.462 104.879 220.536C106.018 223.61 107.018 226.388 107.657 228.426C107.999 229.444 108.259 230.278 108.425 230.852C108.55 231.142 108.637 231.447 108.685 231.759Z" fill="#263238"/>
<path d="M53.9842 130.498V128.977H61.1519V130.498H58.48V137.704H56.6561V130.498H53.9842ZM63.274 137.827C62.8564 137.827 62.4842 137.755 62.1575 137.61C61.8308 137.462 61.5723 137.245 61.382 136.958C61.1945 136.668 61.1007 136.308 61.1007 135.876C61.1007 135.512 61.1675 135.207 61.301 134.96C61.4345 134.712 61.6163 134.514 61.8465 134.363C62.0766 134.212 62.3379 134.099 62.6305 134.022C62.926 133.945 63.2357 133.891 63.5595 133.86C63.9402 133.82 64.247 133.783 64.48 133.749C64.7129 133.712 64.882 133.658 64.9871 133.587C65.0922 133.516 65.1448 133.411 65.1448 133.272V133.246C65.1448 132.977 65.0595 132.768 64.8891 132.62C64.7215 132.472 64.4828 132.398 64.1732 132.398C63.8465 132.398 63.5865 132.471 63.3933 132.616C63.2002 132.758 63.0723 132.937 63.0098 133.153L61.3308 133.016C61.4161 132.619 61.5837 132.275 61.8337 131.985C62.0837 131.692 62.4061 131.468 62.801 131.312C63.1987 131.153 63.659 131.073 64.1817 131.073C64.5453 131.073 64.8933 131.116 65.2257 131.201C65.5609 131.286 65.8578 131.418 66.1163 131.597C66.3777 131.776 66.5837 132.006 66.7342 132.288C66.8848 132.566 66.9601 132.9 66.9601 133.289V137.704H65.2385V136.796H65.1874C65.0823 137.001 64.9416 137.181 64.7655 137.337C64.5894 137.491 64.3777 137.612 64.1305 137.7C63.8834 137.785 63.5979 137.827 63.274 137.827ZM63.7939 136.575C64.0609 136.575 64.2967 136.522 64.5013 136.417C64.7058 136.309 64.8663 136.164 64.9828 135.982C65.0993 135.8 65.1575 135.594 65.1575 135.364V134.67C65.1007 134.707 65.0226 134.741 64.9232 134.772C64.8266 134.8 64.7172 134.827 64.595 134.853C64.4729 134.876 64.3507 134.897 64.2286 134.917C64.1064 134.934 63.9956 134.95 63.8962 134.964C63.6831 134.995 63.497 135.045 63.3379 135.113C63.1788 135.181 63.0553 135.273 62.9672 135.39C62.8791 135.504 62.8351 135.646 62.8351 135.816C62.8351 136.063 62.9246 136.252 63.1036 136.383C63.2854 136.511 63.5155 136.575 63.7939 136.575ZM73.8145 133.025L72.1526 133.127C72.1242 132.985 72.0631 132.857 71.9693 132.744C71.8756 132.627 71.752 132.535 71.5986 132.467C71.448 132.396 71.2676 132.36 71.0574 132.36C70.7761 132.36 70.5389 132.42 70.3457 132.539C70.1526 132.656 70.056 132.812 70.056 133.008C70.056 133.164 70.1185 133.296 70.2435 133.404C70.3685 133.512 70.583 133.599 70.8869 133.664L72.0716 133.903C72.708 134.033 73.1824 134.244 73.4949 134.533C73.8074 134.823 73.9636 135.204 73.9636 135.675C73.9636 136.104 73.8372 136.481 73.5844 136.805C73.3344 137.129 72.9906 137.381 72.5531 137.563C72.1185 137.742 71.6171 137.832 71.0489 137.832C70.1824 137.832 69.4921 137.651 68.9778 137.291C68.4665 136.927 68.1668 136.433 68.0787 135.808L69.8642 135.714C69.9182 135.978 70.0489 136.18 70.2563 136.319C70.4636 136.455 70.7293 136.523 71.0531 136.523C71.3713 136.523 71.627 136.462 71.8202 136.34C72.0162 136.215 72.1156 136.055 72.1185 135.859C72.1156 135.694 72.046 135.559 71.9097 135.454C71.7733 135.346 71.5631 135.264 71.279 135.207L70.1455 134.981C69.5063 134.853 69.0304 134.631 68.7179 134.316C68.4082 134.001 68.2534 133.599 68.2534 133.11C68.2534 132.69 68.3671 132.327 68.5943 132.023C68.8244 131.719 69.1469 131.485 69.5617 131.32C69.9793 131.156 70.4679 131.073 71.0276 131.073C71.8543 131.073 72.5048 131.248 72.9793 131.597C73.4565 131.947 73.735 132.423 73.8145 133.025ZM76.7516 135.82L76.7559 133.643H77.0201L79.1167 131.158H81.2005L78.3837 134.448H77.9533L76.7516 135.82ZM75.1068 137.704V128.977H76.9221V137.704H75.1068ZM79.1977 137.704L77.2715 134.853L78.4818 133.57L81.3241 137.704H79.1977ZM82.1252 128.977H84.4008L86.8042 134.84H86.9065L89.3099 128.977H91.5854V137.704H89.7957V132.023H89.7232L87.4647 137.661H86.246L83.9874 132.002H83.915V137.704H82.1252V128.977ZM92.7733 130.498V128.977H99.9409V130.498H97.269V137.704H95.4452V130.498H92.7733Z" fill="white"/>
</svg>
